<?xml version="1.0" encoding="UTF-8"?>
<svg width="999px" height="676px" viewBox="0 0 999 676" version="1.1" xmlns="http://www.w3.org/2000/svg" xmlns:xlink="http://www.w3.org/1999/xlink">
    <!-- Generator: Sketch 48.2 (47327) - http://www.bohemiancoding.com/sketch -->
    <title>Group</title>
    <desc>Created with Sketch.</desc>
    <defs></defs>
    <g id="1200х1200-copy-8" stroke="none" stroke-width="1" fill="none" fill-rule="evenodd" transform="translate(-97.000000, -261.000000)">
        <g id="Group" transform="translate(97.000000, 261.000000)" fill="#4AB250">
            <path d="M501.591974,490.862637 L746.599861,245.985526 L501.1748,0.532967033 L256.135229,245.531503 L501.591974,490.862637 Z M696.454488,245.932733 L501.555009,440.724704 L306.333409,245.55262 L501.201204,50.7236943 L696.454488,245.932733 Z" id="Fill-2"></path>
            <path d="M991.348636,24.3351 C994.267111,22.9873657 996.265633,20.1333401 996.085871,16.8723516 C995.911397,12.3376221 991.872058,8.90222092 987.161259,9.06606312 C985.88707,9.11891545 984.634029,9.48888173 983.571323,10.086113 C891.232249,48.7211629 766.155496,74.7985003 628.363286,54.904885 L628.146515,55.0687272 C610.725544,52.9916308 597.248745,50.7242661 584.533287,48.2930591 L638.5568,102.249998 C775.698699,116.520126 900.484661,72.8482495 991.348636,24.3351" id="Fill-3"></path>
            <path d="M987.180982,100.736388 C985.909605,100.857287 984.659331,101.141137 983.598971,101.750888 C905.559675,134.309508 803.970902,157.695575 691.156033,152.228839 L733.602067,194.532967 C832.869655,186.853254 922.087568,152.801795 991.42242,115.917094 C994.271147,114.571436 996.265256,111.659348 996.085892,108.368793 C995.911803,103.974378 991.881381,100.573437 987.180982,100.736388" id="Fill-4"></path>
            <path d="M987.149399,190.28709 C985.873519,190.457259 984.618815,190.723148 983.554699,191.260243 C926.383607,215.285966 867.613694,234.536323 790.033809,240.944246 L744.467406,284.071429 C839.406677,274.584512 924.525374,241.412211 991.342334,205.666105 C994.264683,204.235623 996.265856,201.252349 996.085856,198.01914 C995.911151,193.451168 991.866451,189.989294 987.149399,190.28709" id="Fill-5"></path>
            <path d="M985.074344,284.080963 C983.806648,284.197356 982.559993,284.588859 981.502703,285.04914 C904.483615,317.512175 804.177852,341.02883 692.967801,336.029226 L650.63939,378.390948 C782.248294,388.913923 901.543192,346.324706 989.240381,299.307269 C992.143983,297.878811 994.132319,295.037766 993.953474,291.694116 C993.779889,287.376998 989.761136,283.864049 985.074344,284.080963" id="Fill-6"></path>
            <path d="M996.085892,381.284227 C995.911739,376.907616 991.879835,373.39787 987.177706,373.619872 C985.905862,373.619872 984.655128,373.937018 983.594378,374.513166 C891.425265,413.273659 766.578732,439.358895 629.040145,419.320571 L628.823773,419.510858 C622.612319,418.776137 616.881105,418.004416 611.603744,417.253838 L571.738558,457.076769 C579.374899,458.308352 587.306773,459.444791 596.114689,460.459657 C749.912825,490.06521 891.177229,442.329493 991.357376,388.959154 C994.27048,387.537284 996.265322,384.571971 996.085892,381.284227" id="Fill-7"></path>
            <path d="M17.7165116,482.31491 C18.9514196,482.31491 20.2285468,482.034309 21.2576368,481.372513 C113.379666,442.691865 238.36397,416.595928 375.876786,436.550399 L376.019275,436.380979 C391.867261,438.223419 404.42216,440.34646 416.069348,442.432441 L362.678046,388.853443 C226.827607,375.479871 103.495124,418.951922 13.4734942,467.104193 C10.5498231,468.528378 8.60246807,471.456163 8.78189915,474.643372 C8.94549808,479.17535 12.9615879,482.632572 17.7165116,482.31491" id="Fill-8"></path>
            <path d="M17.6958798,388.521065 C18.9279399,388.478935 20.2021216,388.110304 21.2288383,387.509962 C98.7801733,355.054623 199.693262,331.620214 311.579057,336.881108 L269.383633,294.730769 C170.803034,302.540483 82.3790322,336.528275 13.4626479,373.243937 C10.5457194,374.728994 8.60285549,377.57272 8.78187276,380.869335 C8.94509439,385.277111 12.9519221,388.763308 17.6958798,388.521065" id="Fill-9"></path>
            <path d="M17.6908033,296.856619 C18.9221626,296.734413 20.1956197,296.4103 21.2217524,295.910847 C77.1696668,272.165584 141.358216,253.723022 217.018404,247.001662 L260.400139,203.06044 C165.50654,212.20999 80.2849005,245.492677 13.4599791,281.517041 C10.5447097,282.90382 8.60295082,285.879283 8.78186627,289.16292 C8.94499506,293.572982 12.9495439,297.026646 17.6908033,296.856619" id="Fill-10"></path>
            <path d="M17.7164806,207.313071 C18.9513844,207.228436 20.2285071,206.953375 21.2575936,206.360934 C98.3968599,174.009423 198.492671,150.560396 309.665674,155.373979 L352.0957,112.913944 C220.47818,102.741943 101.193864,145.106765 13.4734779,191.999529 C10.5498169,193.438314 8.60246865,196.363491 8.78189911,199.621917 C8.94549747,204.091673 12.9615734,207.545816 17.7164806,207.313071" id="Fill-11"></path>
            <path d="M17.6896239,113.510305 C18.9208203,113.510305 20.194109,113.219575 21.220106,112.569399 C113.065258,73.8019646 237.673917,47.7367589 374.773432,67.7442226 L374.915493,67.575071 C381.63972,68.2886793 387.637856,69.1767253 393.378178,70.0700572 L433.128988,30.1185616 C425.147257,28.8763545 416.83405,27.7345811 407.589553,26.6985275 C254.168793,-2.95586391 113.307288,44.7607477 13.4593591,98.2232281 C10.5444751,99.6293009 8.60297297,102.526022 8.78186476,105.782191 C8.94497199,110.322854 12.9489913,113.748174 17.6896239,113.510305" id="Fill-12"></path>
            <path d="M0.58,624 C0.72,590.68 25.92,573.88 50.84,573.88 C71.14,573.88 93.12,584.94 96.9,611.12 L72.26,611.12 C68.76,601.18 61.34,596.7 50.84,596.7 C36.14,596.7 26.48,607.76 26.48,624 C26.48,638.42 36,651.02 50.84,651.16 C61.48,651.16 70.02,645.84 72.68,635.34 L97.32,635.34 C93.68,663.06 71.7,673.98 50.84,673.98 C25.92,674.12 0.72,657.32 0.58,624 Z M205.306667,624.14 C205.306667,556.38 104.786667,556.38 104.786667,624.14 C104.786667,692.04 205.306667,692.04 205.306667,624.14 Z M130.546667,624.14 C130.546667,659.7 179.686667,659.7 179.686667,624.14 C179.686667,588.86 130.546667,588.86 130.546667,624.14 Z M282.073334,638.28 L301.253334,669.36 L301.253334,673 L273.253334,673 L256.453334,644.16 L243.433334,644.16 L243.433334,673 L218.373334,673 L218.373334,575 L261.353334,575 C299.853334,575.14 306.853334,621.48 282.073334,638.28 Z M261.353334,621.9 C274.933334,621.9 275.633334,597.54 261.353334,597.4 C255.473334,597.26 249.313334,597.4 243.433334,597.4 L243.433334,621.9 L261.353334,621.9 Z M377.460001,673 L371.720001,660.68 L333.080001,660.68 L327.340001,673 L302.840001,673 L302.840001,669.36 L346.940001,573.74 L357.720001,573.74 L401.960001,669.36 L401.960001,673 L377.460001,673 Z M363.600001,639.26 L352.260001,613.5 L341.200001,639.26 L363.600001,639.26 Z M434.206667,575 L434.206667,650.46 L469.766667,650.46 L469.766667,673 L409.006667,673 L409.006667,575 L434.206667,575 Z M562.820001,576.54 L573.460001,576.54 L590.120001,628.62 L590.540001,628.62 L594.880001,611.96 L607.340001,575 L632.260001,575 L632.260001,578.78 L598.240001,673.98 L583.820001,673.98 L568.140001,626.8 L567.720001,626.8 L552.040001,673.98 L538.180001,673.98 L503.740001,578.78 L503.740001,575 L529.080001,575 L541.680001,611.96 L546.020001,628.62 L546.440001,628.62 L562.820001,576.54 Z M735.766668,624.14 C735.766668,556.38 635.246668,556.38 635.246668,624.14 C635.246668,692.04 735.766668,692.04 735.766668,624.14 Z M661.006668,624.14 C661.006668,659.7 710.146668,659.7 710.146668,624.14 C710.146668,588.86 661.006668,588.86 661.006668,624.14 Z M812.533335,638.28 L831.713335,669.36 L831.713335,673 L803.713335,673 L786.913335,644.16 L773.893335,644.16 L773.893335,673 L748.833335,673 L748.833335,575 L791.813335,575 C830.313335,575.14 837.313335,621.48 812.533335,638.28 Z M791.813335,621.9 C805.393335,621.9 806.093335,597.54 791.813335,597.4 C785.933335,597.26 779.773335,597.4 773.893335,597.4 L773.893335,621.9 L791.813335,621.9 Z M866.200002,575 L866.200002,650.46 L901.760002,650.46 L901.760002,673 L841.000002,673 L841.000002,575 L866.200002,575 Z M950.246669,575 C1014.08667,575.28 1014.08667,672.72 950.246669,673 L913.286669,673 L913.286669,575 L950.246669,575 Z M938.346669,597.82 L938.346669,650.18 L950.246669,650.18 C981.466669,650.18 981.466669,597.82 950.246669,597.82 L938.346669,597.82 Z" id="CORAL-WORLD"></path>
            <g id="earth" transform="translate(397.000000, 142.000000)" fill-rule="nonzero">
                <path d="M211.225968,93.3628883 C209.263455,75.484116 202.700075,59.1500935 192.085576,44.5974316 C174.984924,21.1646456 152.114972,6.83766054 123.556001,1.85002585 C117.861747,0.85678502 112.038345,0.598306231 106.274717,0 C105.891639,0 105.511179,0 105.130718,0 C99.7458058,0.590871139 94.3377693,0.982306868 88.9903795,1.80585265 C34.0779745,10.2525546 -5.62430034,62.3725499 0.652861604,117.822154 C3.64811543,144.288895 14.7080847,166.859211 34.3423771,184.859568 C57.6865957,206.264324 85.417454,215.441851 116.856057,212.447696 C140.984321,210.14238 162.038795,200.388414 179.39207,183.368176 C204.593215,158.63075 215.073767,128.392668 211.225968,93.3628883 Z M188.851662,147.858614 C186.167059,143.166196 182.778256,136.623753 181.264267,131.039999 C179.064403,122.932687 173.782896,130.765775 173.341788,136.060435 C172.900681,141.355095 169.380985,145.325435 162.337666,137.383444 C155.294348,129.442328 153.97408,131.20532 151.774216,131.20532 C149.574351,131.20532 145.613111,136.499106 146.492708,161.208541 C147.119683,178.84939 154.062214,181.648921 158.598508,182.928631 C150.175583,188.729753 140.496965,193.300147 129.634207,196.066002 C88.1164547,206.628643 45.7369945,187.447418 25.9364688,149.339947 C7.48937029,113.833009 16.476877,73.6537713 35.2293911,51.5396208 C35.733763,55.5169576 36.2276636,59.0897381 36.6386656,62.6765139 C37.7564865,72.4689675 36.9131033,82.1332751 34.9200488,91.7590952 C34.4942122,93.8103059 34.6425569,96.1471116 35.1944864,98.1646457 C35.4946663,99.2663514 37.1517637,100.567492 38.2966357,100.676395 C39.1980479,100.764304 40.7709379,99.3319551 41.1361276,98.2564909 C41.7962615,96.3334262 41.8233126,94.1772495 42.0261957,92.1102939 C42.1719226,90.6521412 42.1745404,89.1747447 42.2748913,86.8873605 C43.7640102,88.0970937 44.8499806,88.830981 45.7527016,89.7411237 C48.0529169,92.0626219 50.3793107,94.3736234 52.4783881,96.8696276 C53.4055424,97.9774563 54.3610567,99.528329 54.3353146,100.862272 C54.2772856,103.716035 55.5264352,105.656594 57.0522039,107.897619 C58.7476965,110.389686 59.5112353,113.522922 60.6020051,116.408175 C61.0583832,117.617908 61.1539346,118.982903 61.6980106,120.146277 C62.8598986,122.637907 64.6160379,124.344479 67.6348524,124.530357 C70.8107377,124.731979 71.9996767,125.967516 72.4560548,129.224524 C71.6436495,129.317681 70.8351709,129.426584 70.0240745,129.501372 C66.1505329,129.871377 64.230778,131.654924 64.3839221,135.571468 C64.6867198,143.349887 67.4860714,150.145998 73.2462084,155.549123 C74.8334966,157.040953 76.5198267,158.426504 78.0621752,159.954197 C81.5849253,163.441692 82.8140047,167.538865 81.1206936,172.355056 C80.3095972,174.65075 79.1978847,176.904895 78.838367,179.278438 C78.4723046,181.690032 78.4696868,184.311558 79.026852,186.671544 C79.6045237,189.127311 79.3567008,194.498947 81.8868503,194.054591 C86.3624969,193.266033 88.9349684,194.150372 89.2831421,189.127311 C89.3490246,188.170371 89.2752885,188.051847 89.0213573,187.167946 C87.6906182,182.452785 93.7330465,169.066996 97.3587652,166.626536 C100.456115,164.537712 103.562191,162.412588 106.369396,159.959445 C110.416588,156.433462 112.228575,151.878375 110.527847,146.574093 C108.92747,141.582084 110.799667,137.916584 114.281404,134.702875 C117.83295,131.427498 120.161526,127.653095 119.918938,122.612103 C119.676351,117.571111 116.385717,113.930977 112.097247,114.448372 C110.000351,114.696354 107.99028,115.704465 105.946178,116.394617 C102.949615,117.4106 100.025043,118.832452 96.9495084,119.38571 C92.6387862,120.151088 89.9825437,117.327939 88.0597347,113.899925 C86.5125868,111.14413 86.0029792,110.932448 83.3170677,112.64908 C81.0513207,114.101984 78.7899368,115.564948 76.4430365,116.878335 C74.0049479,118.24333 72.6763903,117.736869 70.7967758,115.694406 C69.6850633,114.489484 68.1457689,113.641883 66.7168605,112.773289 C65.6893554,112.142619 64.300151,111.968987 63.4764017,111.178244 C62.3725426,110.108028 60.832812,108.520854 60.9890102,107.360542 C61.1709506,105.998171 62.7451496,104.292911 64.1182106,103.734842 C66.4843084,102.773091 69.1728378,102.617828 71.7104046,102.065007 C73.0616502,101.770228 74.4325297,101.46364 75.7100392,100.958491 C77.4587613,100.259155 77.3850253,99.1075903 76.0464326,98.0268778 C75.3862988,97.4954874 74.5699666,97.1219833 73.774141,96.8013997 C69.9058351,95.2400303 66.0157137,93.7468889 62.1495893,92.1793966 C61.1888393,91.7927718 60.2424874,91.3173632 59.3799067,90.7522962 C56.9492353,89.1511273 56.6564727,87.3881358 58.8615729,85.4375175 C67.5680973,77.7391357 77.7379984,75.4849907 86.7486294,85.7130533 C89.5401274,88.8808398 91.4332675,92.8310605 94.0690036,96.1554214 C96.1423388,98.7769474 98.5293794,101.237963 101.164679,103.260745 C102.25065,104.091726 104.692665,104.232993 105.907346,103.565584 C107.716279,102.572781 107.779543,100.309888 106.869405,98.4226871 C106.082742,96.783468 105.158205,95.1678662 104.046929,93.7333308 C98.9277285,87.1217845 99.279829,74.2376447 109.306621,68.8620732 C112.66052,67.0614688 116.043652,65.165083 117.645338,60.3348973 C115.724274,60.8557911 114.331143,61.1916823 112.966808,61.6106716 C105.352799,63.9745935 110.653504,58.2810625 114.156184,57.288259 C116.283621,56.6820803 112.253008,55.0481095 112.253008,55.0481095 C112.34856,54.881476 114.929758,54.143215 117.800227,52.9164249 C119.775393,52.0749474 121.794626,51.1276292 123.435144,49.7884379 C124.49799,48.9145959 124.907683,47.2447617 125.606648,45.9313746 C125.429071,45.7245041 125.255857,45.5228819 125.075662,45.3160113 C123.063846,45.5876109 121.054648,45.8858893 119.038033,46.113753 C115.620869,46.4973163 114.818935,45.8255338 114.502176,42.3704028 C114.282713,40.0112918 111.884328,38.7254583 109.64476,39.9351915 C108.129462,40.7587373 106.81923,41.9527256 105.361089,42.8974196 C101.994537,45.0833367 99.4774765,44.2094947 98.1567724,40.4403404 C97.3701092,38.196692 96.2745401,37.7724544 94.2151667,39.028985 C93.1793717,39.6596557 92.3154821,40.5811698 91.2622348,41.1707288 C89.5353281,42.1377282 87.779625,43.1082264 85.9253164,43.7651386 C84.1190016,44.406306 81.9435704,44.8716553 80.714491,42.8860483 C79.3942232,40.7508648 80.5482577,38.6721006 82.2132087,37.3333466 C84.2826171,35.6683234 86.6683488,34.3759294 88.9969241,33.0677906 C92.3137368,31.1963342 95.8260155,29.6397758 99.0289519,27.5990617 C101.379779,26.0954237 102.407284,23.6449048 101.646799,20.7535287 C101.004554,18.3130691 99.3758167,17.4873365 97.1205411,18.6065365 C95.2583789,19.5332989 93.6313867,20.9835792 91.7164313,21.7305873 C90.3171918,22.2681007 88.5737054,22.2737864 87.0714973,22.0087472 C86.5169499,21.9103416 85.9274979,20.3699654 85.9122271,19.4755676 C85.9017558,18.9599221 86.944968,18.0642122 87.6103375,17.95531 C92.2369467,17.2327939 96.8840622,16.621367 101.537722,16.0899766 C102.152917,16.0226234 103.077453,16.4039999 103.463149,16.8964654 C106.536938,20.7858932 110.825845,22.6730945 115.337705,24.0197209 C119.128349,25.1481055 119.67766,24.6105921 120.199048,20.6240706 C125.067808,19.4751302 130.016849,17.2113634 134.916587,20.3087353 C137.634785,22.0236174 140.113014,24.2086597 142.413666,26.4715519 C142.98392,27.0348694 142.635746,28.7773051 142.362181,29.8995667 C142.001355,31.4075783 141.168443,32.8014393 140.784055,34.309451 C140.041459,37.2318795 141.92631,39.5157648 144.938579,39.4680928 C145.890167,39.4475369 146.839137,39.2520377 147.79596,39.2043657 C150.578732,39.0740329 151.566533,40.1416246 151.311293,42.9582125 C150.95003,46.9495448 151.612782,47.4293269 155.630741,46.7479226 C156.785648,46.5528608 158.119441,47.0785655 159.297909,47.4927439 C159.999056,47.7407261 160.543132,48.4142579 161.167489,48.8870423 C164.90403,51.7254981 167.76141,50.6618425 168.855234,46.0175342 C168.973473,45.5119479 168.958203,44.9718103 169.061608,44.4609758 C169.494861,42.3774006 170.66853,41.8411992 172.070823,43.3220946 C175.04208,46.4758857 177.829651,49.8054949 180.844103,53.2440063 C177.604953,56.2219793 177.496749,59.8411197 178.214039,63.3876586 C179.010737,67.3330684 177.974069,70.7606458 176.421686,74.2363326 C174.933876,77.5659418 173.29903,80.8749951 172.305557,84.3585544 C170.820365,89.5871736 172.506695,91.9755876 177.803909,93.1328378 C182.858536,94.2389171 183.686213,95.2575247 183.877315,100.211045 C184.132556,106.967357 187.593786,111.630472 193.507067,114.606258 C194.819918,115.262733 196.214794,115.761759 197.555568,116.320266 C196.892817,126.735518 193.926796,137.575007 188.851662,147.858614 Z" id="Shape"></path>
            </g>
        </g>
    </g>
</svg>